{
  "title": "Mohenjo Daro {2016} 720p DVDScr Rip x264 AC3 {Team DUS} - jnmjy",
  "uid": 15569687,
  "size": 3100939734,
  "categoryP": "video",
  "categoryS": "movies",
  "magnet": "?xt=urn:btih:143aac49b33a6aaa012fd744be7309294263203a&amp;dn=Mohenjo+Daro+%7B2016%7D+720p+DVDScr+Rip+x264+AC3+%7BTeam+DUS%7D+-+jnmjy&amp;tr=udp%3A%2F%2Ftracker.leechers-paradise.org%3A6969&amp;tr=udp%3A%2F%2Fzer0day.ch%3A1337&amp;tr=udp%3A%2F%2Fopen.demonii.com%3A1337&amp;tr=udp%3A%2F%2Ftracker.coppersurfer.tk%3A6969&amp;tr=udp%3A%2F%2Fexodus.desync.com%3A6969",
  "seeders": 57,
  "leechers": 7,
  "uploader": "makintos13",
  "files": 1,
  "time": 1471240136,
  "description": "screens:\r\n \nhttps://imgmak.com/a19\r\n \nhttps://imgmak.com/a1M\r\n \nhttps://imgmak.com/a1O\r\n \nhttps://imgmak.com/a1P\r\n \nhttps://imgmak.com/a1Y\r\n \nhttps://imgmak.com/a10\r\n \nhttps://imgmak.com/a1A\r\n \nhttps://imgmak.com/a1D\r\n \nhttps://imgmak.com/a1f\r\n \nhttps://imgmak.com/a1E\r\n\r\nYear.............: 2016\r\nSource: junaid (Many thanks!)\r\nRipper...........: jnmjy\r\n\r\nGeneral\r\nFormat : Matroska\r\nFormat version : Version 2\r\nFile size : 2.89 GiB\r\nDuration : 2h 34mn\r\nOverall bit rate : 2 669 Kbps\r\nEncoded date : UTC 2016-08-14 15:09:18\r\nWriting application : mkvmerge v8.5.2 ('Crosses') 32bit\r\nWriting library : libebml v1.3.3 + libmatroska v1.4.4\r\nDURATION : 02:34:54.784000000\r\n\r\nVideo\r\nID : 1\r\nFormat : AVC\r\nFormat/Info : Advanced Video Codec\r\nFormat profile :   \r\nFormat settings, CABAC : Yes\r\nFormat settings, ReFrames : 4 frames\r\nCodec ID : V_MPEG4/ISO/AVC\r\nDuration : 2h 34mn\r\nBit rate : 2 499 Kbps\r\nWidth : 1 288 pixels\r\nHeight : 544 pixels\r\nDisplay aspect ratio : 2.35:1\r\nFrame rate mode : Constant\r\nFrame rate : 23.976 fps\r\nColor space : YUV\r\nChroma subsampling : 4:2:0\r\nBit depth : 8 bits\r\nScan type : Progressive\r\nBits/(Pixel*Frame) : 0.149\r\nStream size : 2.62 GiB (91%)\r\nWriting library : x264 core 148 r2638 7599210\r\nDefault : Yes\r\nForced : No\r\n\r\nAudio\r\nID : 2\r\nFormat : AC-3\r\nFormat/Info : Audio Coding 3\r\nMode extension : CM (complete main)\r\nFormat settings, Endianness : Big\r\nCodec ID : A_AC3\r\nDuration : 2h 34mn\r\nBit rate mode : Constant\r\nBit rate : 192 Kbps\r\nChannel(s) : 2 channels\r\nChannel positions : Front: L R\r\nSampling rate : 48.0 KHz\r\nCompression mode : Lossy\r\nDelay relative to video : 31ms\r\nStream size : 213 MiB (7%)\r\nDefault : Yes\r\nForced : No",
  "parsed": {
    "xt": "urn:btih:143aac49b33a6aaa012fd744be7309294263203a",
    "dn": "Mohenjo Daro {2016} 720p DVDScr Rip x264 AC3 {Team DUS} - jnmjy",
    "tr": [
      "udp://exodus.desync.com:6969",
      "udp://open.demonii.com:1337",
      "udp://tracker.coppersurfer.tk:6969",
      "udp://tracker.leechers-paradise.org:6969",
      "udp://zer0day.ch:1337"
    ],
    "infoHash": "143aac49b33a6aaa012fd744be7309294263203a",
    "infoHashBuffer": {
      "type": "Buffer",
      "data": [
        20,
        58,
        172,
        73,
        179,
        58,
        106,
        170,
        1,
        47,
        215,
        68,
        190,
        115,
        9,
        41,
        66,
        99,
        32,
        58
      ]
    },
    "name": "Mohenjo Daro {2016} 720p DVDScr Rip x264 AC3 {Team DUS} - jnmjy",
    "announce": [
      "udp://exodus.desync.com:6969",
      "udp://open.demonii.com:1337",
      "udp://tracker.coppersurfer.tk:6969",
      "udp://tracker.leechers-paradise.org:6969",
      "udp://zer0day.ch:1337"
    ],
    "urlList": []
  },
  "previous": 52,
  "peers": 68,
  "last_updated": "2016-12-26T17:01:47.340Z"
}